<?xml version="1.0" encoding="UTF-8"?>
<svg width="62px" height="70px" viewBox="0 0 62 70" version="1.1" xmlns="http://www.w3.org/2000/svg" xmlns:xlink="http://www.w3.org/1999/xlink">
    <title>Twitter</title>
    <g id="Welcome" stroke="none" stroke-width="1" fill="none" fill-rule="evenodd">
        <g id="Desktop-HD---Home" transform="translate(-1042.000000, -700.000000)" fill="#192837">
            <g id="Data" transform="translate(0.000000, 665.000000)">
                <g id="courses" transform="translate(1042.000000, 35.000000)">
                    <g id="Twitter">
                        <path d="M48.7843005,23.5387618 C47.430926,24.1392436 45.9751116,24.5448395 44.4493381,24.7263999 C46.0075926,23.7927798 47.2035591,22.3144785 47.7682286,20.5521768 C46.3099156,21.4166707 44.6941947,22.0446364 42.9760338,22.3827718 C41.5993397,20.9169632 39.6379879,20 37.465926,20 C33.2983656,20 29.9186774,23.3796883 29.9186774,27.5464158 C29.9186774,28.1377363 29.9861379,28.7140656 30.115229,29.2670752 C23.8430673,28.9522595 18.2821559,25.9481847 14.560168,21.3808583 C13.9097154,22.495206 13.5374333,23.7927798 13.5374333,25.1753038 C13.5374333,27.7929382 14.8708195,30.1040852 16.8946348,31.4574597 C15.6586916,31.4174831 14.4943732,31.0793477 13.4766356,30.5121797 C13.4758028,30.5438278 13.4758028,30.5763088 13.4758028,30.607957 C13.4758028,34.2649829 16.0784459,37.3140313 19.5305917,38.006959 C18.8976289,38.180191 18.2305194,38.2726369 17.5425888,38.2726369 C17.055374,38.2726369 16.5831504,38.2259975 16.1225867,38.1377158 C17.0828579,41.1359607 19.86956,43.3171839 23.1726264,43.3779816 C20.5891387,45.4034626 17.3352102,46.6094233 13.7989469,46.6094233 C13.1909695,46.6094233 12.588822,46.5736109 12,46.5036519 C15.338046,48.6457313 19.3057234,49.895 23.5673953,49.895 C37.4492691,49.895 45.0406586,38.395898 45.0406586,28.4209039 C45.0406586,28.0944283 45.033163,27.7687856 45.0181718,27.4448086 C46.4939745,26.3812645 47.7723928,25.0520426 48.7843005,23.5387618" id="Fill-1"></path>
                        <g id="Group-3" transform="translate(0.000000, 0.066692)">
                            <path d="M30.5342572,0.735213241 C29.6584433,0.735213241 28.7945243,0.966696486 28.0361895,1.40453662 L3.16657586,15.7631804 C1.62558174,16.652493 0.668240807,18.3105653 0.668240807,20.0903934 L0.668240807,48.806879 C0.668240807,50.5863063 1.62558174,52.2443785 3.16657586,53.1342258 L28.0361895,67.4923349 C28.794658,67.9304424 29.6584433,68.1619256 30.5342572,68.1619256 C31.4102048,68.1619256 32.2741238,67.9304424 33.0324586,67.4923349 L57.9020723,53.1342258 C59.4430664,52.2443785 60.4002737,50.5863063 60.4002737,48.806879 L60.4002737,20.0903934 C60.4002737,18.3105653 59.4430664,16.652493 57.9020723,15.763314 L33.0324586,1.40453662 C32.2741238,0.966696486 31.4102048,0.735213241 30.5342572,0.735213241 M30.5342572,68.8301798 C29.5412315,68.8301798 28.5618382,68.5676895 27.7020624,68.071043 L2.83244877,53.7129339 C1.08536506,52.704271 -1.33650834e-05,50.8242047 -1.33650834e-05,48.806879 L-1.33650834e-05,20.0903934 C-1.33650834e-05,18.0725331 1.08536506,16.1926005 2.83244877,15.1844723 L27.7020624,0.825828506 C28.5618382,0.329315656 29.5412315,0.0669590681 30.5342572,0.0669590681 C31.5272829,0.0669590681 32.5066763,0.329315656 33.3665857,0.825828506 L58.2361994,15.1844723 C59.9832831,16.1927342 61.0685278,18.0725331 61.0685278,20.0903934 L61.0685278,48.806879 C61.0685278,50.8242047 59.9832831,52.7041374 58.2361994,53.7129339 L33.3665857,68.071043 C32.5068099,68.5676895 31.5274166,68.8301798 30.5342572,68.8301798" id="Fill-1"></path>
                            <path d="M30.0371831,2.23891878 C30.0371831,1.9694787 30.2547666,1.75162784 30.524474,1.75162784 C30.794315,1.75162784 31.0118986,1.9694787 31.0118986,2.23891878 C31.0118986,2.50541854 30.794315,2.72620972 30.5276816,2.72620972 C30.2579742,2.72620972 30.0371831,2.50862616 30.0371831,2.23891878 L30.0371831,2.23891878 Z M32.1389761,3.15228858 C31.9054881,3.0187714 31.824362,2.72313575 31.9606859,2.48951409 C32.0939357,2.25575878 32.389705,2.17449908 32.6231931,2.30748166 C32.8573493,2.44380551 32.9384754,2.7393075 32.8052255,2.97373107 C32.7146102,3.12916699 32.5520908,3.21737654 32.3826216,3.21737654 C32.2981542,3.21737654 32.2170282,3.19746256 32.1389761,3.15228858 L32.1389761,3.15228858 Z M28.2502714,2.98295298 C28.1138139,2.75227164 28.1950736,2.45329472 28.425354,2.31697087 C28.6595103,2.18372099 28.9584872,2.26484704 29.0917371,2.49552838 C29.2281946,2.7300856 29.1469348,3.02892886 28.9127786,3.16191144 C28.8382014,3.20721908 28.7534668,3.22659845 28.6723407,3.22659845 C28.5034061,3.22659845 28.3378127,3.13932445 28.2502714,2.98295298 L28.2502714,2.98295298 Z M33.8219074,4.12393015 C33.5884194,3.99054662 33.507026,3.69170335 33.6434835,3.45727979 C33.7767334,3.22659845 34.0755767,3.14533874 34.3090647,3.28219719 C34.540147,3.41504612 34.621273,3.71388939 34.4849492,3.9484466 C34.3974079,4.10388252 34.2316808,4.1882162 34.0623452,4.1882162 C33.9810855,4.1882162 33.8966182,4.16883683 33.8219074,4.12393015 L33.8219074,4.12393015 Z M26.5672064,3.95446089 C26.4307489,3.72377955 26.5120086,3.42493629 26.745764,3.28847878 C26.9767126,3.1552289 27.2755559,3.23648861 27.4120134,3.4670363 C27.5452632,3.70092526 27.4641372,4.00016948 27.2330549,4.13301841 C27.1550028,4.17912794 27.0706691,4.19810636 26.9894094,4.19810636 C26.8206084,4.19810636 26.6582227,4.11083237 26.5672064,3.95446089 L26.5672064,3.95446089 Z M35.5014974,5.09476981 C35.271217,4.96178723 35.1899573,4.66294397 35.3232072,4.43186167 C35.4596647,4.19810636 35.758508,4.11684666 35.988922,4.25330416 C36.2230783,4.38655404 36.3042043,4.68553096 36.1678805,4.91928627 C36.0802055,5.07539044 35.9146122,5.16293174 35.7451429,5.16293174 C35.6638832,5.16293174 35.5795495,5.1407457 35.5014974,5.09476981 L35.5014974,5.09476981 Z M24.8842751,4.92623611 C24.7478176,4.69555477 24.8290773,4.3967115 25.0629663,4.260254 C25.293514,4.12700412 25.5924909,4.20826383 25.7292157,4.43894517 C25.8621983,4.67243317 25.7809386,4.97127644 25.5502572,5.10452632 C25.4722052,5.15023491 25.3877378,5.16988158 25.3066118,5.16988158 C25.1378108,5.16988158 24.9752914,5.08180568 24.8842751,4.92623611 L24.8842751,4.92623611 Z M37.1849633,6.06627773 C36.953881,5.93302785 36.872755,5.63405093 37.0060049,5.40029562 C37.1424624,5.16988158 37.438098,5.08862187 37.6722543,5.22187176 C37.9058759,5.35832926 37.9871356,5.65730617 37.8505445,5.89079418 C37.7599292,6.04716566 37.5974098,6.13123203 37.4286088,6.13123203 C37.3474828,6.13123203 37.2630154,6.11198631 37.1849633,6.06627773 L37.1849633,6.06627773 Z M23.2012102,5.89774403 C23.0678266,5.66332046 23.1458787,5.36795212 23.380035,5.23149462 C23.6139239,5.09851204 23.9095596,5.17602952 24.0460171,5.41031943 C24.179267,5.64394109 24.1012149,5.94278436 23.8673259,6.07643519 C23.7892738,6.12147552 23.7081478,6.1413895 23.6238141,6.1413895 C23.4548795,6.1413895 23.2924937,6.05317995 23.2012102,5.89774403 L23.2012102,5.89774403 Z M38.8678946,7.03805295 C38.6337384,6.90440211 38.5556863,6.60555884 38.6889362,6.37207084 C38.82526,6.1413895 39.1210293,6.06026344 39.3551856,6.19658729 C39.5886736,6.32956987 39.6667257,6.62881409 39.5334758,6.8623021 C39.4427269,7.01840627 39.2803411,7.1031409 39.1115401,7.1031409 C39.0302804,7.1031409 38.9459467,7.08309328 38.8678946,7.03805295 L38.8678946,7.03805295 Z M21.5182789,6.86871734 C21.385029,6.638036 21.4630811,6.33905908 21.6972373,6.20260158 C21.9307253,6.0693517 22.2299696,6.1506114 22.3629521,6.38129274 C22.496202,6.61571631 22.4181499,6.91455957 22.1846619,7.04780946 C22.1066098,7.09284979 22.0253501,7.11222916 21.9408828,7.11222916 C21.7718145,7.11222916 21.6092951,7.02482151 21.5182789,6.86871734 L21.5182789,6.86871734 Z M40.5506923,8.00956086 C40.316536,7.87631098 40.238484,7.57733406 40.3717338,7.3431778 C40.5049837,7.11222916 40.803827,7.03096945 41.0379832,7.16782791 C41.2721395,7.30081049 41.3495233,7.59965375 41.2169417,7.83060239 C41.1255245,7.98951324 40.9631388,8.07424787 40.7943378,8.07424787 C40.7100041,8.07424787 40.6287444,8.05460119 40.5506923,8.00956086 L40.5506923,8.00956086 Z M19.8354812,7.8400916 C19.7022313,7.6066036 19.7802834,7.310567 20.0140387,7.17424315 C20.2479277,7.04099326 20.5467709,7.11931265 20.6800208,7.35280066 C20.8132707,7.58695692 20.7352186,7.88580019 20.5014633,8.01878277 C20.4236785,8.06475866 20.3424188,8.08373707 20.2578178,8.08373707 C20.0886159,8.08373707 19.9262301,7.99659673 19.8354812,7.8400916 L19.8354812,7.8400916 Z M42.23349,8.98040052 C41.9993337,8.84741794 41.9219499,8.54857468 42.0551997,8.31441842 C42.187915,8.08373707 42.4867583,8.00261102 42.7209146,8.13906852 C42.9550708,8.2723184 43.0331229,8.57116167 42.899873,8.80531793 C42.8084559,8.96102115 42.6459364,9.0489634 42.4772691,9.0489634 C42.3928018,9.0489634 42.3083344,9.02637641 42.23349,8.98040052 L42.23349,8.98040052 Z M18.1526836,8.81159952 C18.0194337,8.57811151 18.0974858,8.28247587 18.3312411,8.14601836 C18.56513,8.01276848 18.8639733,8.09082057 18.9972232,8.32430858 C19.133547,8.55806389 19.052421,8.8570408 18.818532,8.99029069 C18.7439548,9.03586562 18.6593539,9.05524499 18.5748865,9.05524499 C18.4090259,9.05524499 18.2432988,8.96770369 18.1526836,8.81159952 L18.1526836,8.81159952 Z M43.9162876,9.95190844 C43.6827996,9.81865856 43.6047475,9.51981529 43.7379974,9.28605998 C43.8712473,9.05524499 44.1702242,8.97411893 44.4037122,9.11057644 C44.6378685,9.24409362 44.7159206,9.54253593 44.5826707,9.77335092 C44.4919218,9.93279637 44.3294023,10.0169964 44.1599331,10.0169964 C44.0755994,10.0169964 43.9912657,9.99761702 43.9162876,9.95190844 L43.9162876,9.95190844 Z M16.4697522,9.78350839 C16.3365024,9.54895117 16.4177621,9.25358283 16.6480425,9.11712533 C16.8821987,8.9842764 17.1811756,9.06540245 17.3144255,9.29608379 C17.4507494,9.52970545 17.3696233,9.82854872 17.135467,9.9620659 C17.0608899,10.0071062 16.9761553,10.0270202 16.8918216,10.0270202 C16.7260945,10.0270202 16.5605012,9.93894431 16.4697522,9.78350839 L16.4697522,9.78350839 Z M45.5992189,10.9234164 C45.3657309,10.7901665 45.2844712,10.4913232 45.4209287,10.2578352 C45.5541786,10.0270202 45.8528882,9.94589415 46.0865099,10.0823517 C46.3174585,10.2156015 46.3987182,10.5144448 46.2622607,10.7451261 C46.1747194,10.904037 46.0089924,10.9915783 45.8428644,10.9887716 C45.7583971,10.9887716 45.674197,10.968724 45.5992189,10.9234164 L45.5992189,10.9234164 Z M14.7897613,10.7546154 C14.6534374,10.5236667 14.7345635,10.2248234 14.9652448,10.0883659 C15.1994011,9.95511606 15.4982443,10.0363758 15.6314942,10.2673244 C15.7679517,10.5014807 15.686692,10.8003239 15.4525357,10.9335738 C15.3776913,10.9786142 15.2933576,10.9982608 15.2120979,10.9982608 C15.0432969,10.9982608 14.8777035,10.9104522 14.7897613,10.7546154 L14.7897613,10.7546154 Z M47.2826848,11.8951916 C47.0485286,11.7619417 46.9672689,11.4630984 47.1037264,11.2289422 C47.2369763,10.9982608 47.5358195,10.9171348 47.7699758,11.0499837 C48.0003898,11.1864412 48.0815159,11.4856854 47.948266,11.7198417 C47.8575171,11.8752776 47.6919237,11.9634871 47.5225881,11.9634871 C47.4413284,11.9634871 47.3568611,11.9403656 47.2826848,11.8951916 L47.2826848,11.8951916 Z M13.1069636,11.725856 C12.9705061,11.491967 13.0517658,11.1963314 13.2824471,11.0598739 C13.5162024,10.926624 13.8151794,11.00775 13.9517705,11.2384314 C14.0847531,11.4725876 14.003627,11.7715646 13.7729457,11.9044135 C13.6948936,11.950523 13.6104263,11.9695014 13.5293002,11.9695014 C13.3602319,11.9695014 13.1946385,11.8822274 13.1069636,11.725856 L13.1069636,11.725856 Z M48.9622749,12.8664322 C48.7314599,12.7334496 48.6500665,12.434339 48.7866577,12.2001828 C48.9199076,11.9695014 49.2187508,11.8882417 49.4496995,12.0246992 C49.6831875,12.1579491 49.7644472,12.4567924 49.6279897,12.6909486 C49.5403147,12.8467855 49.374855,12.9345941 49.2059203,12.9345941 C49.1247943,12.9345941 49.040327,12.9121408 48.9622749,12.8664322 L48.9622749,12.8664322 Z M11.4238986,12.6973639 C11.2874411,12.4666825 11.3687008,12.1681066 11.6027235,12.0316491 C11.8334048,11.8979982 12.1322481,11.9793916 12.2687056,12.2099393 C12.4019554,12.4438282 12.3206957,12.7426715 12.0900144,12.8759214 C12.0119623,12.92163 11.9276286,12.9410094 11.8463689,12.9410094 C11.6774343,12.9410094 11.5150485,12.8534681 11.4238986,12.6973639 L11.4238986,12.6973639 Z M50.6452062,13.8376728 C50.4141239,13.7044229 50.3329978,13.405446 50.4662477,13.1716907 C50.6027052,12.9410094 50.9015485,12.8597496 51.1324971,12.9934005 C51.3659851,13.1297243 51.4472448,13.4283003 51.3107873,13.6621893 C51.2201721,13.8185607 51.0576527,13.9058347 50.8888517,13.9058347 C50.8077256,13.9058347 50.7232583,13.8832477 50.6452062,13.8376728 L50.6452062,13.8376728 Z M9.74110098,13.6691391 C9.60450983,13.4384578 9.68576953,13.1396145 9.91979214,13.0028897 C10.1535475,12.8699071 10.4493168,12.9511668 10.5856406,13.1818482 C10.7190241,13.4153362 10.640972,13.7141794 10.4070831,13.8474293 C10.329031,13.8928706 10.2477713,13.9127846 10.1634376,13.9127846 C9.99450296,13.9127846 9.83198355,13.8247087 9.74110098,13.6691391 L9.74110098,13.6691391 Z M52.3280038,14.8091807 C52.0938476,14.6759308 52.0157955,14.3769539 52.1490454,14.1434659 C52.2855029,13.9127846 52.5811385,13.8315249 52.8152948,13.9645074 C53.049451,14.1012322 53.1268349,14.4002092 52.9942533,14.6336972 C52.9028361,14.7898013 52.7404503,14.874536 52.5716493,14.874536 C52.4905233,14.874536 52.4060559,14.8544884 52.3280038,14.8091807 L52.3280038,14.8091807 Z M8.05803602,14.6403797 C7.92478614,14.4096984 8.00283822,14.1104542 8.23672718,13.9741303 C8.4707498,13.8411477 8.76638544,13.9222738 8.90284294,14.1530888 C9.03595918,14.387245 8.95804074,14.6860883 8.72401813,14.8193382 C8.64623334,14.8643785 8.56497363,14.8840252 8.48037266,14.8840252 C8.311438,14.8840252 8.14905224,14.7960829 8.05803602,14.6403797 L8.05803602,14.6403797 Z M54.0108015,15.7809559 C53.7767789,15.6477061 53.6992614,15.3488628 53.8326449,15.1147065 C53.9652266,14.8840252 54.2640698,14.8027655 54.4982261,14.939223 C54.7323824,15.0722056 54.8104344,15.3713161 54.6771846,15.6019975 C54.5857674,15.7609083 54.423248,15.8457766 54.2545806,15.8457766 C54.1701133,15.8457766 54.0888536,15.8259963 54.0108015,15.7809559 L54.0108015,15.7809559 Z M6.37510471,15.6116203 C6.24198848,15.380939 6.31990692,15.0819621 6.55379588,14.9455046 C6.78768484,14.8122547 7.08666175,14.8935144 7.21991164,15.1241957 C7.35316152,15.358352 7.27510943,15.6574626 7.04122047,15.7905788 C6.96316838,15.8361537 6.88204233,15.8551321 6.797575,15.8551321 C6.62864034,15.8551321 6.46612093,15.7679918 6.37510471,15.6116203 L6.37510471,15.6116203 Z M55.6935992,16.7521966 C55.4601111,16.619214 55.3820591,16.3199698 55.5153089,16.0858135 C55.6517664,15.8551321 55.9475357,15.7738724 56.1810237,15.9103299 C56.41518,16.0437135 56.4932321,16.3425567 56.3599822,16.5732381 C56.2692333,16.7324162 56.1067139,16.8203585 55.9373783,16.8203585 C55.8530446,16.8203585 55.7716512,16.7979051 55.6935992,16.7521966 L55.6935992,16.7521966 Z M4.69230705,16.5829946 C4.55905717,16.3495066 4.63697561,16.0537373 4.87086457,15.9174134 C5.10488718,15.7838963 5.40373045,15.8622156 5.53684668,16.0957037 C5.67009656,16.3295926 5.59217812,16.6284359 5.35828916,16.7616858 C5.28357835,16.8073943 5.19911102,16.8266401 5.11451004,16.8266401 C4.94891666,16.8266401 4.78318962,16.7390988 4.69230705,16.5829946 L4.69230705,16.5829946 Z M57.2795,17.7233035 C57.071272,17.54782 57.0421361,17.2429624 57.2178869,17.0344671 C57.3898955,16.8298477 57.6951541,16.8007118 57.9032484,16.9761953 C58.1076005,17.1452637 58.137271,17.4535961 57.9647278,17.6620914 C57.8676973,17.7754273 57.7274976,17.837575 57.5910401,17.837575 C57.4805108,17.837575 57.3701152,17.7985489 57.2795,17.7233035 L57.2795,17.7233035 Z M3.0905018,17.6750556 C2.91835953,17.4666939 2.94428779,17.1617027 3.14904087,16.9891595 C3.35686792,16.8136759 3.66226007,16.8397378 3.83774362,17.0443573 C4.01001954,17.2524516 3.98395763,17.5577101 3.7793382,17.7331937 C3.68832198,17.8080381 3.57458512,17.8466632 3.46405588,17.8466632 C3.32452441,17.8466632 3.18793326,17.7883915 3.0905018,17.6750556 L3.0905018,17.6750556 Z M58.2375091,19.0878785 C58.1468939,18.8344766 58.2769361,18.5555473 58.5269968,18.4613234 C58.7801315,18.3699063 59.0599964,18.4966072 59.1539529,18.7500092 C59.2447018,19.0038122 59.1182681,19.2830088 58.8645989,19.3769653 C58.8094011,19.3970129 58.7509956,19.4065021 58.6957979,19.4065021 C58.497861,19.4065021 58.3124873,19.2830088 58.2375091,19.0878785 L58.2375091,19.0878785 Z M2.20025359,19.3938053 C1.94685161,19.3027891 1.816943,19.0229242 1.90782557,18.7697895 C1.99884179,18.5165212 2.27830568,18.386078 2.53157401,18.4772279 C2.78510965,18.568645 2.91501826,18.8474407 2.82413569,19.1040503 C2.75263249,19.2995815 2.56418482,19.4229412 2.36598063,19.4229412 C2.31078283,19.4229412 2.25558504,19.4127837 2.20025359,19.3938053 L2.20025359,19.3938053 Z M58.4393219,20.8358978 C58.4393219,20.5661904 58.6570391,20.3484732 58.9267465,20.3484732 C59.1932463,20.3484732 59.4140374,20.5661904 59.4140374,20.8358978 C59.4140374,21.1026649 59.1932463,21.3231887 58.9267465,21.3231887 C58.6570391,21.3231887 58.4393219,21.1026649 58.4393219,20.8358978 L58.4393219,20.8358978 Z M1.65442359,20.8520695 C1.65442359,20.5826295 1.87534841,20.364645 2.14184818,20.364645 C2.41155556,20.364645 2.62913912,20.5826295 2.62913912,20.8520695 C2.62913912,21.1216433 2.41155556,21.3393605 2.14184818,21.3393605 C1.87534841,21.3393605 1.65442359,21.1216433 1.65442359,20.8520695 L1.65442359,20.8520695 Z M58.4393219,22.775706 C58.4393219,22.5094735 58.6570391,22.2917563 58.9267465,22.2917563 C59.1932463,22.2917563 59.4140374,22.5094735 59.4140374,22.775706 C59.4140374,23.0450124 59.1932463,23.262997 58.9267465,23.262997 C58.6570391,23.262997 58.4393219,23.0450124 58.4393219,22.775706 L58.4393219,22.775706 Z M1.65442359,22.7953527 C1.65442359,22.525378 1.87534841,22.3079281 2.14184818,22.3079281 C2.41155556,22.3079281 2.62913912,22.525378 2.62913912,22.7953527 C2.62913912,23.0650601 2.41155556,23.2826436 2.14184818,23.2826436 C1.87534841,23.2826436 1.65442359,23.0650601 1.65442359,22.7953527 L1.65442359,22.7953527 Z M58.4393219,24.7215285 C58.4393219,24.4518211 58.6570391,24.2341039 58.9267465,24.2341039 C59.1932463,24.2341039 59.4140374,24.4518211 59.4140374,24.7215285 C59.4140374,24.9882956 59.1932463,25.2088195 58.9267465,25.2088195 C58.6570391,25.2088195 58.4393219,24.9882956 58.4393219,24.7215285 L58.4393219,24.7215285 Z M1.65442359,24.7377003 C1.65442359,24.4682602 1.87534841,24.2502757 2.14184818,24.2502757 C2.41155556,24.2502757 2.62913912,24.4682602 2.62913912,24.7377003 C2.62913912,25.0074076 2.41155556,25.2249912 2.14184818,25.2249912 C1.87534841,25.2249912 1.65442359,25.0074076 1.65442359,24.7377003 L1.65442359,24.7377003 Z M58.4393219,26.6648116 C58.4393219,26.3951043 58.6570391,26.1775207 58.9267465,26.1775207 C59.1932463,26.1775207 59.4140374,26.3951043 59.4140374,26.6648116 C59.4140374,26.9307768 59.1932463,27.1521026 58.9267465,27.1521026 C58.6570391,27.1521026 58.4393219,26.9307768 58.4393219,26.6648116 L58.4393219,26.6648116 Z M1.65442359,26.6807161 C1.65442359,26.4110087 1.87534841,26.1932915 2.14184818,26.1932915 C2.41155556,26.1932915 2.62913912,26.4110087 2.62913912,26.6807161 C2.62913912,26.9506908 2.41155556,27.168007 2.14184818,27.168007 C1.87534841,27.168007 1.65442359,26.9506908 1.65442359,26.6807161 L1.65442359,26.6807161 Z M58.4393219,28.6071592 C58.4393219,28.3374518 58.6570391,28.1198683 58.9267465,28.1198683 C59.1932463,28.1198683 59.4140374,28.3374518 59.4140374,28.6071592 C59.4140374,28.8737926 59.1932463,29.0944502 58.9267465,29.0944502 C58.6570391,29.0944502 58.4393219,28.8737926 58.4393219,28.6071592 L58.4393219,28.6071592 Z M1.65442359,28.6237319 C1.65442359,28.3540245 1.87534841,28.136441 2.14184818,28.136441 C2.41155556,28.136441 2.62913912,28.3540245 2.62913912,28.6237319 C2.62913912,28.893172 2.41155556,29.1110229 2.14184818,29.1110229 C1.87534841,29.1110229 1.65442359,28.893172 1.65442359,28.6237319 L1.65442359,28.6237319 Z M58.4393219,30.5471011 C58.4393219,30.2808686 58.6570391,30.0596765 58.9267465,30.0596765 C59.1932463,30.0596765 59.4140374,30.2808686 59.4140374,30.5471011 C59.4140374,30.8166748 59.1932463,31.034392 58.9267465,31.034392 C58.6570391,31.034392 58.4393219,30.8166748 58.4393219,30.5471011 L58.4393219,30.5471011 Z M1.65442359,30.5663468 C1.65442359,30.2967731 1.87534841,30.0790559 2.14184818,30.0790559 C2.41155556,30.0790559 2.62913912,30.2967731 2.62913912,30.5663468 C2.62913912,30.8364551 2.41155556,31.0537714 2.14184818,31.0537714 C1.87534841,31.0537714 1.65442359,30.8364551 1.65442359,30.5663468 L1.65442359,30.5663468 Z M58.4393219,32.4929236 C58.4393219,32.2232162 58.6570391,32.0056326 58.9267465,32.0056326 C59.1932463,32.0056326 59.4140374,32.2232162 59.4140374,32.4929236 C59.4140374,32.7594233 59.1932463,32.9802145 58.9267465,32.9802145 C58.6570391,32.9802145 58.4393219,32.7594233 58.4393219,32.4929236 L58.4393219,32.4929236 Z M1.65442359,32.5093626 C1.65442359,32.2397889 1.87534841,32.0220717 2.14184818,32.0220717 C2.41155556,32.0220717 2.62913912,32.2397889 2.62913912,32.5093626 C2.62913912,32.7788027 2.41155556,32.9967872 2.14184818,32.9967872 C1.87534841,32.9967872 1.65442359,32.7788027 1.65442359,32.5093626 L1.65442359,32.5093626 Z M58.4393219,34.4362067 C58.4393219,34.166633 58.6570391,33.9489158 58.9267465,33.9489158 C59.1932463,33.9489158 59.4140374,34.166633 59.4140374,34.4362067 C59.4140374,34.7023055 59.1932463,34.9236313 58.9267465,34.9236313 C58.6570391,34.9236313 58.4393219,34.7023055 58.4393219,34.4362067 L58.4393219,34.4362067 Z M1.65442359,34.4521112 C1.65442359,34.1824038 1.87534841,33.9648202 2.14184818,33.9648202 C2.41155556,33.9648202 2.62913912,34.1824038 2.62913912,34.4521112 C2.62913912,34.7218186 2.41155556,34.9394021 2.14184818,34.9394021 C1.87534841,34.9394021 1.65442359,34.7218186 1.65442359,34.4521112 L1.65442359,34.4521112 Z M58.4393219,36.3785543 C58.4393219,36.1089806 58.6570391,35.8912634 58.9267465,35.8912634 C59.1932463,35.8912634 59.4140374,36.1089806 59.4140374,36.3785543 C59.4140374,36.6482617 59.1932463,36.8659789 58.9267465,36.8659789 C58.6570391,36.8659789 58.4393219,36.6482617 58.4393219,36.3785543 L58.4393219,36.3785543 Z M1.65442359,36.395127 C1.65442359,36.1258206 1.87534841,35.9078361 2.14184818,35.9078361 C2.41155556,35.9078361 2.62913912,36.1258206 2.62913912,36.395127 C2.62913912,36.6648344 2.41155556,36.8824179 2.14184818,36.8824179 C1.87534841,36.8824179 1.65442359,36.6648344 1.65442359,36.395127 L1.65442359,36.395127 Z M58.4393219,38.3187635 C58.4393219,38.0519964 58.6570391,37.8314725 58.9267465,37.8314725 C59.1932463,37.8314725 59.4140374,38.0519964 59.4140374,38.3187635 C59.4140374,38.5882035 59.1932463,38.8061881 58.9267465,38.8061881 C58.6570391,38.8061881 58.4393219,38.5882035 58.4393219,38.3187635 L58.4393219,38.3187635 Z M1.65442359,38.3378755 C1.65442359,38.0681681 1.87534841,37.8504509 2.14184818,37.8504509 C2.41155556,37.8504509 2.62913912,38.0681681 2.62913912,38.3378755 C2.62913912,38.6074493 2.41155556,38.8251665 2.14184818,38.8251665 C1.87534841,38.8251665 1.65442359,38.6074493 1.65442359,38.3378755 L1.65442359,38.3378755 Z M58.4393219,40.2643187 C58.4393219,39.9948786 58.6570391,39.7768941 58.9267465,39.7768941 C59.1932463,39.7768941 59.4140374,39.9948786 59.4140374,40.2643187 C59.4140374,40.5308184 59.1932463,40.7485356 58.9267465,40.7485356 C58.6570391,40.7485356 58.4393219,40.5308184 58.4393219,40.2643187 L58.4393219,40.2643187 Z M1.65442359,40.2808914 C1.65442359,40.0114513 1.87534841,39.7934668 2.14184818,39.7934668 C2.41155556,39.7934668 2.62913912,40.0114513 2.62913912,40.2808914 C2.62913912,40.5504651 2.41155556,40.7680487 2.14184818,40.7680487 C1.87534841,40.7680487 1.65442359,40.5504651 1.65442359,40.2808914 L1.65442359,40.2808914 Z M58.4393219,42.2077354 C58.4393219,41.9376271 58.6570391,41.7203109 58.9267465,41.7203109 C59.1932463,41.7203109 59.4140374,41.9376271 59.4140374,42.2077354 C59.4140374,42.4738343 59.1932463,42.6918188 58.9267465,42.6918188 C58.6570391,42.6918188 58.4393219,42.4738343 58.4393219,42.2077354 L58.4393219,42.2077354 Z M1.65442359,42.2235062 C1.65442359,41.9537989 1.87534841,41.7360816 2.14184818,41.7360816 C2.41155556,41.7360816 2.62913912,41.9537989 2.62913912,42.2235062 C2.62913912,42.49308 2.41155556,42.7107972 2.14184818,42.7107972 C1.87534841,42.7107972 1.65442359,42.49308 1.65442359,42.2235062 L1.65442359,42.2235062 Z M58.4393219,44.150083 C58.4393219,43.8806429 58.6570391,43.6626584 58.9267465,43.6626584 C59.1932463,43.6626584 59.4140374,43.8806429 59.4140374,44.150083 C59.4140374,44.4165828 59.1932463,44.637374 58.9267465,44.637374 C58.6570391,44.637374 58.4393219,44.4165828 58.4393219,44.150083 L58.4393219,44.150083 Z M1.65442359,44.1667894 C1.65442359,43.897082 1.87534841,43.6793648 2.14184818,43.6793648 C2.41155556,43.6793648 2.62913912,43.897082 2.62913912,44.1667894 C2.62913912,44.4362295 2.41155556,44.6540803 2.14184818,44.6540803 C1.87534841,44.6540803 1.65442359,44.4362295 1.65442359,44.1667894 L1.65442359,44.1667894 Z M58.4393219,46.0929652 C58.4393219,45.8232578 58.6570391,45.6028676 58.9267465,45.6028676 C59.1932463,45.6028676 59.4140374,45.8232578 59.4140374,46.0929652 C59.4140374,46.3598659 59.1932463,46.5803898 58.9267465,46.5803898 C58.6570391,46.5803898 58.4393219,46.3598659 58.4393219,46.0929652 L58.4393219,46.0929652 Z M1.65442359,46.109137 C1.65442359,45.8395632 1.87534841,45.621846 2.14184818,45.621846 C2.41155556,45.621846 2.62913912,45.8395632 2.62913912,46.109137 C2.62913912,46.3788443 2.41155556,46.5965615 2.14184818,46.5965615 C1.87534841,46.5965615 1.65442359,46.3788443 1.65442359,46.109137 L1.65442359,46.109137 Z M58.4393219,48.035981 C58.4393219,47.7664073 58.6570391,47.5486901 58.9267465,47.5486901 C59.1932463,47.5486901 59.4140374,47.7664073 59.4140374,48.035981 C59.4140374,48.3022135 59.1932463,48.5234056 58.9267465,48.5234056 C58.6570391,48.5234056 58.4393219,48.3022135 58.4393219,48.035981 L58.4393219,48.035981 Z M1.65442359,48.0525537 C1.65442359,47.7828464 1.87534841,47.5652628 2.14184818,47.5652628 C2.41155556,47.5652628 2.62913912,47.7828464 2.62913912,48.0525537 C2.62913912,48.3219938 2.41155556,48.5399783 2.14184818,48.5399783 C1.87534841,48.5399783 1.65442359,48.3219938 1.65442359,48.0525537 L1.65442359,48.0525537 Z M58.5396937,50.4112237 C58.286559,50.3198065 58.1563831,50.0406099 58.2478003,49.7874752 C58.3384155,49.5335386 58.6177458,49.4002888 58.8715487,49.4945126 C59.1246834,49.5856625 59.2548593,49.8616514 59.1634421,50.118261 C59.0923399,50.3165989 58.9038922,50.4399586 58.7058217,50.4399586 C58.6499556,50.4399586 58.5948915,50.4302021 58.5396937,50.4112237 L58.5396937,50.4112237 Z M1.91116684,50.1348337 L1.91116684,50.1348337 C1.816943,49.8845057 1.95019288,49.6049082 2.20025359,49.5106843 C2.45378923,49.4167278 2.73311947,49.5466364 2.82734331,49.8004394 C2.91835953,50.053574 2.78831727,50.3327706 2.53491528,50.4269945 C2.47971749,50.4466411 2.42451969,50.456264 2.36918825,50.456264 C2.17098406,50.456264 1.98253638,50.3327706 1.91116684,50.1348337 L1.91116684,50.1348337 Z M57.2402066,51.8439606 C57.0649904,51.6393412 57.0909186,51.3306078 57.2954044,51.1579309 C57.5002911,50.985655 57.8087573,51.0085092 57.9813005,51.2132623 C58.1563831,51.4178818 58.1304548,51.7266152 57.925969,51.9020987 C57.8346855,51.9804181 57.7210823,52.0158356 57.6106867,52.0158356 C57.4710216,52.0158356 57.3346978,51.9572965 57.2402066,51.8439606 L57.2402066,51.8439606 Z M3.15866373,51.9151965 C2.95070303,51.7427869 2.92490842,51.4344545 3.09705069,51.2294341 C3.27240059,51.021607 3.57779274,50.9956788 3.78588709,51.168222 C3.99050652,51.3402306 4.0196424,51.6485631 3.84415886,51.8535835 C3.74686105,51.9702607 3.61040355,52.0286661 3.47060478,52.0286661 C3.36020919,52.0286661 3.2498136,51.9899073 3.15866373,51.9151965 L3.15866373,51.9151965 Z M55.5381632,52.7954209 C55.4049134,52.5619329 55.4863067,52.2630896 55.7164534,52.1298397 C55.9506097,51.9933822 56.249453,52.074642 56.3828365,52.30813 C56.519294,52.5388113 56.4380343,52.8376546 56.203878,52.9741121 C56.125826,53.0163457 56.0445662,53.0392 55.9600989,53.0392 C55.7914316,53.0392 55.6290458,52.9515251 55.5381632,52.7954209 L55.5381632,52.7954209 Z M4.88062108,52.9810619 C4.64673212,52.847812 4.56560606,52.5489688 4.70192991,52.3148125 C4.8351798,52.0841312 5.13402306,52.0030051 5.36791202,52.135854 C5.59872701,52.2723115 5.67998672,52.5715558 5.54339557,52.8021034 C5.45572062,52.9611479 5.28999359,53.0457489 5.12426655,53.0457489 C5.03979922,53.0457489 4.95546555,53.0261022 4.88062108,52.9810619 L4.88062108,52.9810619 Z M53.854831,53.7673298 C53.7214474,53.5331735 53.8027071,53.2343302 54.0336558,53.1013477 C54.2678121,52.9646229 54.566789,53.0457489 54.7000389,53.2799052 C54.8363627,53.5105865 54.7552366,53.8091625 54.5210804,53.94562 C54.4461023,53.98772 54.3616349,54.0109752 54.2774349,54.0109752 C54.1117079,54.0109752 53.9461145,53.9227657 53.854831,53.7673298 L53.854831,53.7673298 Z M6.56034477,53.9523025 C6.32979708,53.8194536 6.24853737,53.5202094 6.38499487,53.2860531 C6.51797745,53.0553718 6.81708802,52.9741121 7.04776936,53.107362 C7.28152467,53.2438195 7.36278438,53.5426627 7.22632688,53.7733441 C7.13865193,53.9326559 6.97305854,54.0169895 6.80412389,54.0169895 C6.72286418,54.0169895 6.6382632,53.9980111 6.56034477,53.9523025 L6.56034477,53.9523025 Z M52.1718997,54.7385704 C52.0386498,54.5044141 52.1199095,54.2054372 52.3508581,54.0721873 C52.5843461,53.9358635 52.8831894,54.0169895 53.0164393,54.2478045 C53.1530304,54.4822281 53.0716371,54.7810714 52.8381491,54.9173952 C52.7634383,54.9596289 52.6789709,54.9822159 52.5945036,54.9822159 C52.4289102,54.9822159 52.2631832,54.8944073 52.1718997,54.7385704 L52.1718997,54.7385704 Z M8.24327608,54.9234095 C8.01259474,54.7901596 7.93133503,54.4913163 8.06779253,54.260635 C8.20104241,54.0268797 8.49988568,53.94562 8.73056702,54.0792708 C8.96458963,54.2153274 9.04571569,54.5143043 8.90939184,54.7480596 C8.82158324,54.9045647 8.6558562,54.9886311 8.48692155,54.9886311 C8.40566184,54.9886311 8.32132816,54.969519 8.24327608,54.9234095 L8.24327608,54.9234095 Z M50.492176,55.7096774 C50.3558521,55.475922 50.4369782,55.1770788 50.6680605,55.0436952 C50.9015485,54.9072377 51.2003917,54.9886311 51.3336416,55.2223864 C51.4700991,55.4529341 51.3888394,55.7521783 51.1553514,55.8886358 C51.080507,55.9311368 50.9960396,55.9533228 50.9147799,55.9533228 C50.7461126,55.9533228 50.5798509,55.8661825 50.492176,55.7096774 L50.492176,55.7096774 Z M9.92620738,55.8950511 C9.69218477,55.7618012 9.61439999,55.4628243 9.74738257,55.2293363 C9.88397372,54.9987886 10.1796094,54.9173952 10.4134983,55.0506451 C10.6473873,55.1871026 10.728647,55.4859459 10.5921895,55.7166272 C10.5013069,55.8721968 10.3389212,55.9604063 10.1698529,55.9604063 C10.0887268,55.9604063 10.0041258,55.9403587 9.92620738,55.8950511 L9.92620738,55.8950511 Z M48.809512,56.6811853 C48.6729208,56.4476973 48.7541805,56.148854 48.9883368,56.0154705 C49.2187508,55.8791466 49.5174604,55.9604063 49.6540516,56.1937607 C49.7873015,56.4245757 49.7060418,56.7234189 49.4756277,56.8598764 C49.3975756,56.9019764 49.313242,56.9249644 49.2321159,56.9249644 C49.0626467,56.9249644 48.9001272,56.8376904 48.809512,56.6811853 L48.809512,56.6811853 Z M11.6092723,56.8666926 C11.3752497,56.7331754 11.2971976,56.4347331 11.4304475,56.2005769 C11.566905,55.9697619 11.8625407,55.8886358 12.0965633,56.0216184 C12.3304522,56.1583432 12.4085043,56.4571865 12.2752545,56.6878678 C12.1841046,56.8469123 12.0217188,56.9315133 11.8529178,56.9315133 C11.7683168,56.9315133 11.6871908,56.9118666 11.6092723,56.8666926 L11.6092723,56.8666926 Z M47.1265807,57.6529605 C46.9901232,57.4188042 47.0713829,57.119961 47.3048709,56.987112 C47.5358195,56.8502536 47.8347964,56.9315133 47.9711203,57.1656695 C48.1043702,57.3963509 48.0232441,57.6949268 47.7921618,57.8312507 C47.714778,57.873618 47.6297761,57.896606 47.5485163,57.896606 C47.3797153,57.896606 47.2171959,57.8085301 47.1265807,57.6529605 L47.1265807,57.6529605 Z M13.29207,57.8380669 C13.058181,57.7050843 12.980129,57.4061074 13.1135125,57.1718175 C13.2498363,56.9411361 13.5457393,56.8598764 13.7792273,56.9962003 C14.0133836,57.1294502 14.0914356,57.4282934 13.9581858,57.6589748 C13.8671695,57.8182866 13.7046501,57.9027539 13.5355818,57.9027539 C13.4543221,57.9027539 13.3699884,57.8837755 13.29207,57.8380669 L13.29207,57.8380669 Z M45.443783,58.6246021 C45.3105331,58.3900448 45.3885852,58.0912016 45.6220732,57.957818 C45.8562295,57.8214942 46.1518651,57.9027539 46.2883226,58.1371775 C46.4215725,58.3678588 46.3435204,58.6667021 46.1093642,58.7996846 C46.0313121,58.8449923 45.9469784,58.8682475 45.8657187,58.8682475 C45.696784,58.8682475 45.5345319,58.780038 45.443783,58.6246021 L45.443783,58.6246021 Z M14.975135,58.8091739 C14.741246,58.6761913 14.6631939,58.3770807 14.7964438,58.1431917 C14.9296937,57.9126441 15.2285369,57.8312507 15.4624259,57.9678419 C15.6963149,58.1010917 15.7743669,58.399935 15.6411171,58.6306163 C15.5502345,58.7901954 15.3878487,58.8773358 15.2186468,58.8773358 C15.1340458,58.8773358 15.0495785,58.8551497 14.975135,58.8091739 L14.975135,58.8091739 Z M43.7608517,59.5953081 C43.6276018,59.3615528 43.7049856,59.0627095 43.9391419,58.9294596 C44.1732982,58.7928685 44.4690675,58.8742618 44.6053913,59.1080171 C44.7387749,59.3386985 44.6607228,59.6379427 44.4265665,59.7707916 C44.3485144,59.8169011 44.2640471,59.8390872 44.1827874,59.8390872 C44.01412,59.8390872 43.8516006,59.7518132 43.7608517,59.5953081 L43.7608517,59.5953081 Z M16.6579326,59.7806818 C16.4240437,59.6474319 16.3429176,59.3485886 16.4792415,59.1151006 C16.6124913,58.8844193 16.9114682,58.8031596 17.1453572,58.9364094 C17.3791125,59.0728669 17.4571646,59.3717102 17.3237811,59.6023916 C17.2331658,59.7578275 17.0706464,59.846037 16.9015781,59.846037 C16.8171108,59.846037 16.7325098,59.8261231 16.6579326,59.7806818 L16.6579326,59.7806818 Z M42.0773858,60.5669496 C41.9441359,60.333328 42.022188,60.0344847 42.2563443,59.9008339 C42.4905005,59.7647773 42.7894774,59.846037 42.9227273,60.079525 C43.0553089,60.3102064 42.9779251,60.6090496 42.7437688,60.7455071 C42.6657168,60.7880081 42.5843234,60.8105951 42.5001234,60.8105951 C42.3313224,60.8105951 42.168803,60.7233211 42.0773858,60.5669496 L42.0773858,60.5669496 Z M18.3411312,60.7525906 C18.106975,60.6189398 18.0257153,60.3203638 18.1621728,60.0864749 C18.2954226,59.8520513 18.5942659,59.7742665 18.8284222,59.9072491 C19.0587026,60.0441076 19.1399623,60.3429508 19.0035048,60.5738995 C18.9159635,60.732543 18.7503701,60.8175449 18.5847767,60.8175449 C18.5003094,60.8175449 18.4155747,60.7974973 18.3411312,60.7525906 L18.3411312,60.7525906 Z M40.3945881,61.5387248 C40.2613382,61.3048359 40.3393903,61.0057253 40.5734129,60.8727427 C40.8070346,60.7362852 41.1058779,60.8175449 41.2391278,61.0514339 C41.3755853,61.2817143 41.2943255,61.5805576 41.0608375,61.7170151 C40.9858594,61.7592487 40.9016594,61.7823703 40.8171921,61.7823703 C40.651465,61.7823703 40.4858716,61.6941608 40.3945881,61.5387248 L40.3945881,61.5387248 Z M20.0207213,61.7236976 C19.7897726,61.590715 19.7085129,61.2918718 19.8449704,61.0574482 C19.9782203,60.8267669 20.2770636,60.7455071 20.5112198,60.878757 C20.7419012,61.0150809 20.8231609,61.3140578 20.689911,61.5447391 C20.5987611,61.7040509 20.4331677,61.7885183 20.2643667,61.7885183 C20.1832407,61.7885183 20.0987734,61.7690052 20.0207213,61.7236976 L20.0207213,61.7236976 Z M38.7117905,62.5064905 C38.5785406,62.2756755 38.6596666,61.9769659 38.8907489,61.8439834 C39.1242369,61.7071249 39.4230802,61.7885183 39.5563301,62.0190659 C39.6927876,62.2534895 39.6115279,62.5523328 39.3780399,62.6889239 C39.3031954,62.730623 39.2187281,62.7538782 39.1343944,62.7538782 C38.968801,62.7538782 38.8024057,62.6656687 38.7117905,62.5064905 L38.7117905,62.5064905 Z M21.7035189,62.6949382 C21.4728376,62.5619556 21.3917115,62.2627114 21.5280354,62.0288225 C21.6614189,61.7982748 21.9602622,61.7170151 22.1909435,61.8502649 C22.4246988,61.9867224 22.5059585,62.2855657 22.369501,62.5194547 C22.2816924,62.6758261 22.1159654,62.7631001 21.947298,62.7598925 C21.8660383,62.7598925 21.781571,62.7409141 21.7035189,62.6949382 L21.7035189,62.6949382 Z M37.0319331,63.4812061 C36.8956093,63.2473171 36.976869,62.9483402 37.2071494,62.8150903 C37.4413056,62.6787665 37.7401489,62.7598925 37.8733988,62.9937815 C38.0098563,63.2248638 37.9285966,63.5235734 37.6944403,63.6602982 C37.6202641,63.7025319 37.5359304,63.7247179 37.4546707,63.7247179 C37.2852015,63.7247179 37.1196081,63.6373103 37.0319331,63.4812061 L37.0319331,63.4812061 Z M23.3864502,63.6663125 C23.1557689,63.5330626 23.0745092,63.2342193 23.2077591,63.0007313 C23.3442166,62.77005 23.6430598,62.6889239 23.8737412,62.8220402 C24.1078974,62.9584977 24.1891571,63.2574746 24.0526996,63.4880223 C23.9614161,63.6434582 23.7988967,63.7318014 23.6300957,63.7318014 C23.548836,63.7318014 23.4645023,63.7120211 23.3864502,63.6663125 L23.3864502,63.6663125 Z M35.3492691,64.4525803 C35.2128116,64.2190923 35.2940713,63.9202491 35.5243517,63.7865982 C35.758508,63.6505417 36.0573512,63.7318014 36.1938087,63.9652894 C36.3270586,64.1958371 36.2459326,64.494814 36.0117763,64.6312715 C35.9374664,64.6736388 35.8523309,64.6962258 35.7712048,64.6962258 C35.6024038,64.6962258 35.4368104,64.6090855 35.3492691,64.4525803 L35.3492691,64.4525803 Z M25.0692479,64.6382213 C24.8357599,64.5047042 24.7577078,64.2057272 24.8909577,63.9722392 C25.0274152,63.7415579 25.3230508,63.6602982 25.5566725,63.7934144 C25.7908287,63.9297383 25.8688808,64.2288488 25.7354973,64.4595302 C25.6444811,64.6181737 25.4819617,64.7033093 25.3128934,64.7033093 C25.2316337,64.7033093 25.1473,64.6832617 25.0692479,64.6382213 L25.0692479,64.6382213 Z M33.6664715,65.4240883 C33.5298803,65.1906002 33.61114,64.891356 33.8447617,64.7583735 C34.0755767,64.6220496 34.3745536,64.7033093 34.5108774,64.9366637 C34.644261,65.1674787 34.5630013,65.4663219 34.3320526,65.6027794 C34.2540005,65.6448794 34.1695332,65.6678674 34.0884072,65.6678674 C33.9194725,65.6678674 33.7570867,65.5801924 33.6664715,65.4240883 L33.6664715,65.4240883 Z M26.7524465,65.6095956 C26.5185575,65.4764794 26.4405054,65.1776361 26.5737553,64.9430789 C26.7102128,64.7123976 27.0059821,64.6312715 27.2397374,64.7643877 C27.4736264,64.9009789 27.5516785,65.1998222 27.4184286,65.4305035 C27.3276797,65.5898153 27.1651603,65.674149 26.996092,65.674149 C26.9113573,65.674149 26.8300976,65.6547696 26.7524465,65.6095956 L26.7524465,65.6095956 Z M31.9835402,66.3958635 C31.8465481,66.1614399 31.9276741,65.8625966 32.1618304,65.7297477 C32.3959866,65.5928893 32.6917559,65.674149 32.8280798,65.9085725 C32.9613297,66.1392539 32.8802036,66.4382308 32.6491213,66.5745546 C32.5710692,66.616521 32.4867356,66.6395089 32.4054758,66.6395089 C32.2368085,66.6395089 32.0742891,66.551433 31.9835402,66.3958635 L31.9835402,66.3958635 Z M28.4352442,66.5805689 L28.4352442,66.5805689 C28.2014888,66.4475863 28.1234368,66.1488767 28.2566866,65.9147205 C28.3899365,65.6839055 28.6887798,65.6027794 28.9226687,65.7391033 C29.1564241,65.8723532 29.2344761,66.1713301 29.1012263,66.4018778 C29.0104773,66.5611896 28.8480916,66.6456569 28.6788896,66.6456569 C28.5945559,66.6456569 28.5132962,66.6266785 28.4352442,66.5805689 L28.4352442,66.5805689 Z M30.543987,67.1431053 L30.5340969,67.1431053 C30.2643895,67.1431053 30.0466723,66.9255217 30.0466723,66.6558143 C30.0466723,66.3889136 30.2643895,66.1683898 30.5340969,66.1683898 L30.5340969,66.1713301 C30.5403784,66.1683898 30.543987,66.1683898 30.5505359,66.1683898 C30.8202433,66.1683898 31.0380942,66.385706 31.0411681,66.6558143 C31.0411681,66.9220468 30.8233173,67.1431053 30.5537435,67.1431053 L30.543987,67.1431053 Z" id="Fill-8"></path>
                        </g>
                    </g>
                </g>
            </g>
        </g>
    </g>
</svg>