<?xml version="1.0" encoding="UTF-8"?>
<svg width="71px" height="71px" viewBox="0 0 71 71" version="1.1" xmlns="http://www.w3.org/2000/svg" xmlns:xlink="http://www.w3.org/1999/xlink">
    <title>YT Views</title>
    <g id="Welcome" stroke="none" stroke-width="1" fill="none" fill-rule="evenodd">
        <g id="Desktop-HD---Home" transform="translate(-598.000000, -700.000000)" fill="#192837">
            <g id="Data" transform="translate(0.000000, 665.000000)">
                <g id="YT-Views" transform="translate(598.000000, 35.000000)">
                    <path d="M35.5,3.08695652 C17.6276793,3.08695652 3.08695652,17.6272935 3.08695652,35.4996141 C3.08695652,53.3719348 17.6276793,67.9126576 35.5,67.9126576 C53.3723207,67.9126576 67.9130435,53.3719348 67.9130435,35.4996141 C67.9130435,17.6272935 53.3723207,3.08695652 35.5,3.08695652 M35.5,70.9996141 C15.9252228,70.9996141 0,55.0743913 0,35.4996141 C0,15.9252228 15.9252228,0 35.5,0 C55.0747772,0 71,15.9252228 71,35.4996141 C71,55.0743913 55.0747772,70.9996141 35.5,70.9996141" id="Fill-1"></path>
                    <path d="M31.3012048,42.1760402 L31.3012048,28.2098771 C35.2594548,30.5347413 39.1798896,32.8376108 43.1879168,35.1910293 C39.1941668,37.537888 35.2725744,39.8423011 31.3012048,42.1760402 M58.872357,30.1890021 C58.8534494,29.6449261 58.8256668,29.1016217 58.7839929,28.5590891 C58.6076505,26.2581489 58.3510472,23.6230456 56.8307211,21.7824478 C55.5299548,20.2073282 53.5145581,19.8515565 51.6014168,19.6346978 C49.1789277,19.3607304 46.7448624,19.1951924 44.3088679,19.1021978 C39.3755255,18.9138934 34.4367809,19.0230945 29.5026668,19.1326815 C26.9678896,19.1890184 24.4311831,19.2453554 21.9037374,19.4467793 C18.8001885,19.6937358 15.6075037,20.1486761 14.1620363,23.2502956 C12.864357,26.0343445 13.0252646,29.5689098 13.0086722,32.5640293 C12.9940092,35.2496815 12.9851342,37.9364913 13.0927918,40.6202141 C13.2324766,44.1026869 13.4393027,48.6397413 17.1988298,50.1673989 C19.2061233,50.9827413 21.6293842,51.1648717 23.7728896,51.3041706 C26.0452755,51.4519587 28.3230635,51.4342087 30.5985363,51.4681652 C35.3709711,51.5391652 40.1422483,51.3751706 44.9131396,51.2806326 C48.2266016,51.2150348 51.6280418,51.1776054 54.7991179,50.0952413 C57.5360907,49.1618228 58.2503353,46.1952576 58.6203842,43.6222793 C58.9881179,41.0655076 58.8943516,38.4713065 58.8904929,35.8971706 C58.8874059,33.9952195 58.9379548,32.0897956 58.872357,30.1890021" id="Fill-4"></path>
                </g>
            </g>
        </g>
    </g>
</svg>